<svg width="32" height="36" viewBox="0 0 32 36" fill="none" xmlns="http://www.w3.org/2000/svg">
<path d="M2.28571 32.625C2.28571 33.5201 2.64694 34.3786 3.28992 35.0115C3.9329 35.6444 4.80497 36 5.71429 36H26.2857C27.195 36 28.0671 35.6444 28.7101 35.0115C29.3531 34.3786 29.7143 33.5201 29.7143 32.625V9.00001H2.28571V32.625ZM21.7143 14.625C21.7143 14.3266 21.8347 14.0405 22.049 13.8295C22.2633 13.6185 22.554 13.5 22.8571 13.5C23.1602 13.5 23.4509 13.6185 23.6653 13.8295C23.8796 14.0405 24 14.3266 24 14.625V30.375C24 30.6734 23.8796 30.9595 23.6653 31.1705C23.4509 31.3815 23.1602 31.5 22.8571 31.5C22.554 31.5 22.2633 31.3815 22.049 31.1705C21.8347 30.9595 21.7143 30.6734 21.7143 30.375V14.625ZM14.8571 14.625C14.8571 14.3266 14.9776 14.0405 15.1919 13.8295C15.4062 13.6185 15.6969 13.5 16 13.5C16.3031 13.5 16.5938 13.6185 16.8081 13.8295C17.0224 14.0405 17.1429 14.3266 17.1429 14.625V30.375C17.1429 30.6734 17.0224 30.9595 16.8081 31.1705C16.5938 31.3815 16.3031 31.5 16 31.5C15.6969 31.5 15.4062 31.3815 15.1919 31.1705C14.9776 30.9595 14.8571 30.6734 14.8571 30.375V14.625ZM8 14.625C8 14.3266 8.12041 14.0405 8.33474 13.8295C8.54906 13.6185 8.83975 13.5 9.14286 13.5C9.44596 13.5 9.73665 13.6185 9.95098 13.8295C10.1653 14.0405 10.2857 14.3266 10.2857 14.625V30.375C10.2857 30.6734 10.1653 30.9595 9.95098 31.1705C9.73665 31.3815 9.44596 31.5 9.14286 31.5C8.83975 31.5 8.54906 31.3815 8.33474 31.1705C8.12041 30.9595 8 30.6734 8 30.375V14.625ZM30.8571 2.25001H22.2857L21.6143 0.935168C21.4721 0.654069 21.253 0.417614 20.9817 0.252405C20.7104 0.0871958 20.3976 -0.000212904 20.0786 1.23277e-05H11.9143C11.596 -0.00119216 11.2838 0.0858906 11.0134 0.251284C10.7431 0.416676 10.5255 0.65369 10.3857 0.935168L9.71429 2.25001H1.14286C0.839753 2.25001 0.549062 2.36854 0.334735 2.57952C0.120408 2.79049 0 3.07664 0 3.37501L0 5.62501C0 5.92338 0.120408 6.20953 0.334735 6.42051C0.549062 6.63148 0.839753 6.75001 1.14286 6.75001H30.8571C31.1602 6.75001 31.4509 6.63148 31.6653 6.42051C31.8796 6.20953 32 5.92338 32 5.62501V3.37501C32 3.07664 31.8796 2.79049 31.6653 2.57952C31.4509 2.36854 31.1602 2.25001 30.8571 2.25001Z" fill="#2F2E2E"/>
</svg>
